HIERARCHY
ROOT Hips
{
  OFFSET 0 0 0
  CHANNELS 6 Xposition Yposition Zposition Zrotation Yrotation Xrotation
  JOINT LeftThigh
  {
    OFFSET 8.409438 0 -5.917753
    CHANNELS 3 Zrotation Yrotation Xrotation
    JOINT LeftLeg
    {
      OFFSET 0 0 -42.358652
      CHANNELS 3 Zrotation Yrotation Xrotation
      JOINT LeftFoot
      {
        OFFSET 0 0 -39.357303
        CHANNELS 3 Zrotation Yrotation Xrotation
      }
    }
  }
  JOINT RightThigh
  {
    OFFSET -8.409438 0 -5.917753
    CHANNELS 3 Zrotation Yrotation Xrotation
    JOINT RightLeg
    {
      OFFSET 0 0 -42.358652
      CHANNELS 3 Zrotation Yrotation Xrotation
      JOINT RightFoot
      {
        OFFSET 0 0 -39.357303
        CHANNELS 3 Zrotation Yrotation Xrotation
      }
    }
  }
  JOINT SpineLow
  {
    OFFSET 0 0 4.719101
    CHANNELS 3 Zrotation Yrotation Xrotation
    JOINT SpineMid
    {
      OFFSET 0 0 12.899191
      CHANNELS 3 Zrotation Yrotation Xrotation
      JOINT Chest
      {
        OFFSET 0 0 12.899191
        CHANNELS 3 Zrotation Yrotation Xrotation
        JOINT LeftShoulder
        {
          OFFSET 7.550562 1.41573 9.438202
          CHANNELS 3 Zrotation Yrotation Xrotation
          JOINT LeftArm
          {
            OFFSET 9.155056 0 4.247191
            CHANNELS 3 Zrotation Yrotation Xrotation
            JOINT LeftForearm
            {
              OFFSET 0 0 25.771955
              CHANNELS 3 Zrotation Yrotation Xrotation
              JOINT LeftHand
              {
                OFFSET 0 0 25.197169
                CHANNELS 3 Zrotation Yrotation Xrotation
              }
            }
          }
        }
        JOINT RightShoulder
        {
          OFFSET -7.550562 1.41573 9.438202
          CHANNELS 3 Zrotation Yrotation Xrotation
          JOINT RightArm
          {
            OFFSET -9.155056 0 4.247191
            CHANNELS 3 Zrotation Yrotation Xrotation
            JOINT RightForearm
            {
              OFFSET 0 0 -25.771955
              CHANNELS 3 Zrotation Yrotation Xrotation
              JOINT RightHand
              {
                OFFSET 0 0 -25.197169
                CHANNELS 3 Zrotation Yrotation Xrotation
              }
            }
          }
        }
        JOINT Neck
        {
          OFFSET 0 0 15.101124
          CHANNELS 3 Zrotation Yrotation Xrotation
          JOINT Head
          {
            OFFSET 0 0 11.325843
            CHANNELS 3 Zrotation Yrotation Xrotation
            End Site
            {
              OFFSET 0 0 14.157303
            }
          }
        }
      }
    }
  }
}
MOTION
Frames: 10
Frame Time: 0.0
0.0  101.685394  0.0  1.464736  -33.675435  -104.74208  30.271603  -18.703514  9.310685  1.469807  5.785373  29.715425  11.865363  5.623192  4.766491  10.064668  9.263684  -4.489658  11.151171  7.97438  17.916274  9.627825  1.638618  -3.830171  -2.800705  -0.832435  3.169736  -7.75135  -1.900976  8.749412  -7.751351  -1.900976  8.749412  1.330079  35.507234  6.029443  -123.327433  54.854811  -102.383966  -16.655484  -26.910109  112.733915  99.428673  10.437535  -29.190513  6.672351  4.944072  12.948407  71.209879  28.356982  27.908413  -52.420666  18.694505  -79.501039  76.602401  25.884879  23.783873  18.077814  4.284691  -2.914907  13.57283  3.130635  -2.314575  
0.0  101.685394  0.0  1.46983  -33.791316  -104.577236  29.835338  -18.393758  9.108527  1.983703  5.672141  30.062547  11.966853  5.602795  4.748665  9.860577  9.28471  -4.814923  11.060924  8.017629  17.989551  9.530836  1.593279  -3.854514  -2.841227  -0.847543  3.161564  -7.863774  -1.937704  8.72997  -7.863774  -1.937705  8.72997  1.27001  35.360539  5.969918  -122.99138  54.648417  -102.463213  -16.741598  -26.655556  112.673891  99.647338  10.541117  -28.573899  6.826678  4.993617  13.094811  71.764295  28.842113  28.448805  -52.425683  18.546582  -79.565162  76.154564  25.514688  23.782279  18.295061  4.306636  -2.893428  13.735576  3.146795  -2.300694  
0.0  101.685394  0.0  1.54749  -34.080171  -104.552847  29.750925  -18.204305  9.031051  2.257382  5.580741  30.298492  12.040366  5.630858  4.752902  10.104669  9.250194  -4.997368  11.003751  8.064252  18.165557  9.48164  1.625478  -3.86198  -2.863514  -0.863214  3.1768  -7.927117  -1.975579  8.774073  -7.927117  -1.975579  8.774073  1.442506  35.353344  5.948917  -122.664975  54.446785  -102.408401  -16.753382  -26.43326  112.62623  99.504731  10.564621  -28.464008  7.051449  5.210189  13.228204  72.359132  29.383422  28.942947  -52.216813  18.158319  -79.669221  75.581948  25.242651  23.602638  18.697029  4.458882  -2.8577  14.036893  3.260447  -2.281452  
0.0  101.685394  0.0  1.569505  -34.241963  -104.449991  29.36988  -17.943705  8.895073  2.702922  5.446724  30.601488  12.172242  5.667791  4.789402  10.235026  9.165953  -5.282141  10.834963  8.17629  18.476634  9.377776  1.630641  -3.887181  -2.897744  -0.868797  3.184982  -8.021491  -1.985213  8.797981  -8.021491  -1.985212  8.797982  1.482161  35.183763  5.854349  -122.21605  54.293344  -102.422246  -16.828558  -26.165715  112.641502  99.390747  10.591197  -28.351495  7.288578  5.280451  13.38964  73.053444  29.986027  29.536791  -52.504099  17.471944  -79.994913  74.811051  24.964524  22.812501  18.979818  4.485916  -2.88646  14.249138  3.278639  -2.306018  
0.0  101.685394  0.0  1.655517  -34.509651  -104.436568  29.183296  -17.757613  8.809837  3.042509  5.388463  30.898374  12.249977  5.691203  4.774261  10.661079  9.029693  -5.496232  10.665939  8.335343  18.90635  9.323447  1.682797  -3.895795  -2.924031  -0.872271  3.210952  -8.094358  -1.987949  8.869977  -8.094358  -1.987949  8.869978  1.653406  35.11516  5.709272  -121.716982  54.154353  -102.327827  -16.838244  -25.886687  112.707092  99.322598  10.597759  -28.24315  7.533488  5.427964  13.395546  73.961174  30.488305  30.236842  -52.257516  16.758564  -80.265201  74.14416  24.844174  22.546747  19.445456  4.639911  -2.906358  14.598559  3.391632  -2.329375  
0.0  101.685394  0.0  1.701371  -34.639638  -104.34378  28.853848  -17.597015  8.691114  3.417445  5.347877  31.21166  12.26364  5.725952  4.7319  10.949778  8.879003  -5.825862  10.159918  8.580972  19.4029  9.41216  1.74865  -3.888069  -2.962502  -0.862529  3.223932  -8.19829  -1.954612  8.905125  -8.198289  -1.954612  8.905125  1.798701  34.937185  5.561927  -121.078251  54.054886  -102.186517  -16.850604  -25.557279  112.833399  99.302588  10.591689  -28.143144  7.601583  5.376942  13.321222  75.169565  30.950575  31.166309  -52.049811  16.028541  -80.640302  73.728823  24.70748  22.376723  19.822054  4.6687  -2.950512  14.881245  3.410185  -2.366423  
0.0  101.685394  0.0  1.847014  -34.841074  -104.328345  28.649881  -17.421917  8.544109  3.788789  5.324632  31.598674  12.240158  5.764489  4.687572  11.445333  8.761724  -6.149802  9.899002  8.782425  20.058192  9.371403  1.83152  -3.875323  -2.988235  -0.845604  3.247557  -8.266707  -1.902069  8.968035  -8.266707  -1.902069  8.968035  1.909049  34.821069  5.326295  -120.373765  53.944066  -101.961135  -16.82319  -25.248884  112.993863  99.298789  10.595487  -28.066228  7.852433  5.457975  13.268267  76.179873  31.476629  31.998632  -51.870981  15.435613  -80.97337  73.662337  24.60665  22.47762  20.310778  4.820894  -3.01201  15.248271  3.520293  -2.421497  
0.0  101.685394  0.0  1.958897  -34.872403  -104.26736  28.401268  -17.281277  8.390238  4.140304  5.308235  32.016317  12.09179  5.790072  4.558498  11.644888  8.625921  -6.584044  9.311333  9.125871  20.792111  9.816238  1.925752  -3.84996  -3.047036  -0.823831  3.251311  -8.424156  -1.834292  8.976808  -8.424157  -1.834292  8.976808  2.208866  34.713686  5.209351  -119.649979  53.894078  -101.670651  -16.848298  -25.123448  113.104536  99.091438  10.517813  -28.096657  8.054181  5.457427  13.218313  77.448508  31.934874  33.032447  -51.812918  15.213865  -81.202912  73.815686  24.448333  22.844607  20.858611  4.888031  -2.995166  15.658843  3.568838  -2.415646  
0.0  101.685394  0.0  2.128895  -34.924787  -104.236849  28.221963  -17.141428  8.159087  4.40761  5.377193  32.490019  12.014521  5.832004  4.448787  11.787596  8.446498  -7.03152  9.268534  9.456432  21.679974  9.814452  2.00622  -3.839948  -3.06423  -0.791461  3.270278  -8.466933  -1.741378  9.024657  -8.466933  -1.741378  9.024657  2.198713  34.54442  4.908922  -118.843525  53.857033  -101.302559  -16.853809  -24.849662  113.31165  99.062005  10.563928  -28.103465  8.26921  5.498331  13.147007  78.522286  32.392823  33.941289  -51.92799  15.356588  -81.321532  74.067309  24.243847  23.261418  21.28457  5.004718  -3.114165  15.979239  3.650454  -2.512564  
0.0  101.685394  0.0  1.97615  -34.133445  -103.949508  27.353709  -17.163402  7.825663  4.657513  5.505839  33.027724  11.817739  5.876211  4.280687  9.916539  8.201635  -7.94395  9.941156  9.702663  22.789364  10.230405  2.153865  -3.836813  -3.219733  -0.790452  3.261133  -8.890806  -1.718526  9.002878  -8.890807  -1.718526  9.002878  2.509986  34.504821  4.776597  -118.061217  53.936636  -100.702046  -16.844841  -24.685663  113.444786  99.026522  10.659472  -28.195723  8.456726  5.541859  13.032259  79.763479  32.694475  34.954981  -52.792456  15.603841  -81.509025  74.290667  23.917481  22.862385  21.761711  5.092713  -3.184994  16.337569  3.711835  -2.572935  
